<?xml version="1.0" encoding="utf-8"?>
<!-- Generator: Adobe Illustrator 17.0.0, SVG Export Plug-In . SVG Version: 6.00 Build 0)  -->
<!DOCTYPE svg PUBLIC "-//W3C//DTD SVG 1.1//EN" "http://www.w3.org/Graphics/SVG/1.1/DTD/svg11.dtd">
<svg version="1.1" id="Layer_1" xmlns="http://www.w3.org/2000/svg" xmlns:xlink="http://www.w3.org/1999/xlink" x="0px" y="0px"
	 width="548.009px" height="166.965px" viewBox="0 0 548.009 166.965" enable-background="new 0 0 548.009 166.965"
	 xml:space="preserve">
<rect x="5.289" y="5.101" stroke="#BE1E2D" stroke-width="8" stroke-miterlimit="10" width="537.143" height="157.143"/>
<g>
	<path fill="#FFFFFF" d="M186.684,117.186c0.915,3.205-0.611,5.646-1.526,8.088c0.305,1.221,0.305,2.441-0.61,3.357
		c0.61,1.983-0.305,3.815-1.222,5.645c-1.22,0.916-2.136,2.136-3.661,3.052c-2.29,0.915-5.036-0.916-7.172,0.61
		c-4.425,0.915-8.698-0.915-12.664,0h-27.313c-2.747-2.136-5.951,0-9.002-0.304c-2.137,0.304-4.273-0.305-5.799-1.832
		c-1.983-0.61-3.204,0.915-5.035,1.526c-3.967,0-8.392,1.221-12.054,0c-1.221-1.526-1.831-3.052-1.221-5.188
		c0.915-3.815,4.883-1.831,7.63-2.136c2.9-1.373,5.645-0.305,7.782-2.289c0-1.221,1.831-1.832,1.221-3.052
		c-0.305-1.831-0.611-3.968-0.305-6.256c0.305-3.357,1.983-6.409,0.915-9.918c0-4.883,1.068-9.46,0.763-14.496
		c0.611-1.526,0-3.051,0.611-4.272c-0.611-1.984-1.373-3.205-1.983-4.73c-0.916-3.662,0.915-7.02,0.304-10.834
		c0.916-1.526,0-3.358,0.305-4.883c-0.915-2.29-0.61-5.035-0.305-7.172c0.611-1.221,0.611-3.357,0.611-4.883
		c-0.915-0.763-0.305-2.441-0.611-3.357c0-0.915,0-2.136,0.611-2.747c-0.305-1.525-0.305-2.746,0-3.967
		c0-1.984-1.832-2.9-1.526-4.426c-2.136-1.526-2.136-4.272-3.967-5.493c-2.746-1.679-6.561,1.525-8.698-1.679
		c-0.61-1.221-0.915-1.983-0.915-3.204c3.357-3.662,8.392-1.526,12.665-1.832c5.951-0.304,12.054,0,18.005,0
		c5.494,1.832,11.444-3.662,16.174,0.915c0,1.832-0.763,2.747-1.373,3.968c-4.883,1.984-9.918,2.289-15.106,2.9
		c-1.221,0.305-0.915,1.831-1.525,2.747c-0.611,1.831,0,3.967-0.611,6.256c0.611,1.22,0.305,3.814,0.611,5.34
		c0,0.915,0,2.441-0.611,3.357c0,2.289,0,4.883-0.61,6.714c0,3.051,0.304,6.866,0.304,10.223c-0.61,3.967,0.611,9.003-0.304,12.97
		c-1.221,1.831,0.304,3.509,0,5.645c0,2.747-0.611,5.494-1.221,8.698c0.915,1.221,0,3.052,1.221,4.273
		c0.61,3.357-0.305,6.866,0,9.917c1.831,2.137,0.304,5.035,1.831,7.172c-0.61,1.525,1.221,2.441,0.611,3.967
		c0.61,1.526,2.746,0.916,3.051,2.441c3.052,1.984,7.477,2.29,10.834,2.9c3.205-0.305,6.562-0.915,9.613-0.305
		c5.646-0.304,11.139-1.373,17.09-0.915c2.137-1.068,1.221-3.204,3.358-4.12c-0.305-0.915,1.221-1.525,0.915-2.441
		c1.221-1.221,2.441-2.746,2.9-4.425c2.136-2.136,1.22-8.239,6.103-6.714c0.611,0.305,1.832,0.916,1.526,1.832
		C187.294,114.745,187.905,116.271,186.684,117.186z"/>
	<path fill="#FFFFFF" d="M198.899,86.365c0-2.137-0.305-4.578-0.305-6.714c3.204-5.035,2.594-11.597,6.256-16.48
		c2.746-5.645,6.561-11.138,9.918-16.784c5.493-4.883,11.749-9.307,18.615-11.749c3.358-1.221,6.104-3.662,10.224-3.662
		c7.019-1.832,13.886-3.204,21.667-2.747c7.477,0.458,13.58,3.662,20.142,6.103c2.441,3.052,6.103,5.035,8.698,7.782
		c2.136,2.136,7.934,0.915,7.324,5.493c1.221,4.73,5.187,7.477,6.866,11.903c1.373,2.289,2.136,4.883,2.747,7.324
		c0.305,3.509,3.509,5.34,3.204,8.697c1.221,1.069,1.526,2.594,1.526,3.358c0,1.221-0.763,4.272-0.611,5.951
		c-0.304,3.051-2.594,5.645-2.289,9.307c-3.357,7.171-5.798,14.801-10.223,21.667c0,1.526-1.221,2.747-2.137,3.358
		c-2.136,1.373-5.187,1.373-5.798,4.119c-0.915,1.221-0.915,3.662-3.204,3.967c-5.188,3.052-9.918,6.866-15.412,9.003
		c-7.477,0.61-13.579,4.577-21.667,3.357c-2.9-1.526-7.477,0.61-9.918-1.832c-6.866-2.136-13.732-3.967-19.531-8.698
		c-2.441-1.22-3.357-4.272-5.645-5.798c-2.136,0.305-4.273,0.305-5.798-0.915c-2.747-5.341-7.477-9.613-10.835-14.648
		c-1.831-3.357,0-8.392-2.136-11.444c-0.915-2.136-2.289-4.577-2.289-7.019C198.288,88.348,198.441,87.28,198.899,86.365z
		 M213.852,92.62c0.305,3.662,0.916,7.171,3.052,9.918c0.915,3.662,3.662,6.409,5.036,10.224c3.051,1.526,3.662,4.883,6.103,7.324
		c2.136,0.763,4.119,2.289,5.645,3.815c3.052,0.915,5.494,3.051,8.698,3.357c3.052,1.831,6.409,2.747,10.528,2.747
		c5.494,2.594,11.75,0,16.633-1.526c3.204,0,6.256-0.915,9.002-2.136c2.747-3.052,7.782-3.052,8.698-7.782
		c3.967-2.441,5.494-6.713,8.392-10.223c1.526-4.578,3.967-8.546,3.662-13.58c0.916-4.883,0.916-10.224,0.611-15.412
		c-1.068-2.136-1.221-4.119-1.221-6.256c0-1.678,0.153-3.509,0-5.34c-1.526-2.137-0.915-4.883-1.831-7.02
		c-3.815-4.73-6.866-9.307-10.223-14.038c-2.747-1.526-4.426-4.272-7.172-5.494c-3.967-1.831-7.782-3.814-11.75-4.73
		c-4.577-1.525-9.918-0.304-14.801,0c-0.304,0-0.61,0.305-1.068,0.611c-1.525,0.305-2.747,0-3.967-0.915
		c-1.526-0.305-3.052,0-4.578,0.61c-3.509,2.9-7.781,3.815-11.749,5.951c-2.289,0.611-1.679,3.052-3.815,4.273
		c-3.052,0.61-4.883,3.815-5.798,6.561c-3.205,2.137-2.289,6.256-4.12,9.003c-0.305,1.221,0,2.441-0.61,3.357
		c-3.052,5.341-2.137,11.75-2.137,17.701c0.305,0.61,0.458,1.221,0.458,1.831C215.53,87.737,212.936,90.178,213.852,92.62z"/>
	<path fill="#FFFFFF" d="M400.933,92.62c5.493-1.831,8.239-0.304,11.749-0.304c2.136,0.61,3.358-0.916,5.188,0.915
		c2.747-1.526,7.477-0.915,10.224-1.526h11.749c1.526,0,1.221,1.832,1.831,2.747c-0.304,1.221-0.304,2.747-1.525,3.357
		c-3.662-0.305-5.494,0.915-7.63,0.305c-1.373-0.305-1.679,0.915-2.289,1.678c0.305,3.358,0.305,7.02-0.611,10.529
		c0.305,0.915,0.764,2.136-0.153,3.051c0.305,2.137,0.153,4.578,0.458,6.714c-2.136,2.594,0.915,6.866-3.357,8.087
		c-2.136,0-1.832,2.9-3.967,2.441c-1.678,0.458-2.9,1.679-3.815,2.594c-1.221,1.221-2.441,1.832-3.357,2.747
		c-3.662,0.61-6.866,2.136-10.528,2.747c-1.832,1.221-4.731,0.915-6.867,0.61c-1.221-0.305-2.441,0.305-3.967,0.305
		c-7.172,1.678-11.75-2.747-18.616-2.136c-3.052-1.221-7.171-0.611-9.613-3.358c-3.052-1.221-5.799-3.814-9.003-5.645
		c-4.272,0.305-6.713-3.051-10.528-3.967c-0.611-2.441-3.662-2.441-3.967-5.035c-1.526-0.915-1.221-2.746-2.441-3.662
		c-1.068-1.831,1.221-4.883-2.289-5.493c-2.441-2.9-2.747-6.256-3.052-9.918c-1.831-1.068-0.305-3.204-1.525-4.425
		c-0.305-2.137-0.611-4.883-0.611-7.171c-1.221-1.222-0.305-3.052-0.305-4.273c0-0.305,0.305-0.61,0.305-0.915
		c-0.305-4.73,1.526-8.392,2.441-12.36c0-2.136-0.611-4.425,0.305-6.256c0.61-2.136,2.747-3.662,2.747-5.493
		c1.678-0.611,1.372-2.29,2.899-2.9c-0.305-1.526,1.526-1.221,1.526-2.441c2.136-0.611,1.526-3.052,3.662-3.357
		c0.305-0.305,0.305-0.611,0.305-0.916c0.915-0.304,2.441-0.915,2.136-2.289c1.679-0.304,2.899-1.831,4.425-2.136
		c0.611-1.221,1.526-1.832,2.747-2.441c0-1.832,2.747-1.221,3.051-2.747c0.611-0.915,1.984-0.61,2.29-1.831
		c2.136-0.305,2.746-3.205,4.883-3.509c0.305,0,0-0.305,0.305-0.305c2.747-1.221,5.952-2.441,8.393-3.968
		c3.051-1.221,7.476-0.305,10.528-2.136c3.968,0.61,7.781-0.611,11.749-0.611c3.967-1.068,8.698-0.763,11.75,1.832
		c1.831,0.61,4.425,0,5.951,1.526c3.662,0.304,7.019,1.525,9.918,3.967c2.136,0.305,2.746,2.9,4.883,3.509
		c0.304,0.916,1.525,2.137,0.915,3.358c0.61,1.831,1.831,3.662,1.221,5.798c0.61,1.068-0.611,1.983,0,2.9
		c-0.915,1.221,0.61,2.441,0,3.662c1.068,2.746-0.305,5.951-0.305,8.392c-1.221,0.915-2.441,1.983-3.967,1.221
		c-2.441-1.068-2.136-4.577-2.746-7.171c0.61-4.578-4.12-6.714-5.951-10.529c-2.137-1.831-3.052-5.188-6.104-5.493
		c-2.289-3.052-6.255-2.441-8.697-5.341c-1.526-0.305-3.51-0.61-5.341-0.915c-2.136,0.61-4.272,1.068-7.019,0.915
		c-5.036-0.153-10.529-0.915-15.565,0.611c-0.305,1.983-2.746,0.915-3.357,2.899c-1.831,0.611-1.831,2.441-3.815,2.747
		c0,1.831-2.441,1.526-3.051,3.052c-1.526,0.61-1.221,2.441-3.052,2.746c0.305,2.594-2.899,1.373-3.204,3.205
		c-1.831,0.304-1.221,2.441-2.747,3.051c0.305,1.526-2.136,1.221-1.831,3.052c-0.916,0.915-1.832,2.594-1.221,3.814
		c-0.915,0.611-0.305,2.137-1.221,2.747c-0.305,2.136-1.221,3.968-2.441,6.256c0,4.273-1.679,7.935-1.679,12.36
		c-0.61,2.136-1.831,4.883-0.61,7.477c-0.611,1.221,0.61,1.831,0.61,3.051c-0.305,2.441-0.305,5.799,0.611,8.698
		c-0.916,1.221,1.373,1.832,1.068,3.357c1.525,1.526,0.915,3.663,1.831,5.188c2.136,1.068,0.916,3.509,3.052,4.12
		c1.831,2.747,3.051,5.188,4.577,8.087c1.983,3.052,5.341,2.747,7.477,5.188c1.831,1.221,4.425,1.221,5.951,3.052
		c3.662,0.763,8.087-0.305,11.139,1.983c4.272,1.831,9.613-0.305,14.19,0c5.341,1.831,8.088-2.9,12.97-2.594
		c1.678-0.915,3.509-2.136,4.425-3.662c-0.305-2.441,1.068-4.577,1.679-6.866c0.305-0.611,0.457-1.526,0.152-2.441
		c-1.525-3.358,0-7.172-0.304-10.834c0.61-1.832-0.305-3.358-0.915-4.883c-2.137-3.205-5.952-0.916-10.835-1.984
		c-1.525-0.305-3.051-0.61-4.272-1.526c-0.458-0.61-0.611-1.372-0.611-2.136C400.322,94.604,400.475,93.689,400.933,92.62z"/>
</g>
</svg>
